<?xml version="1.0" encoding="UTF-8" standalone="no"?>
<!DOCTYPE svg PUBLIC "-//W3C//DTD SVG 1.1//EN" "http://www.w3.org/Graphics/SVG/1.1/DTD/svg11.dtd">
<svg width="100%" height="100%" viewBox="0 0 787 357" version="1.1" xmlns="http://www.w3.org/2000/svg" xmlns:xlink="http://www.w3.org/1999/xlink" xml:space="preserve" xmlns:serif="http://www.serif.com/" style="fill-rule:evenodd;clip-rule:evenodd;stroke-linejoin:round;stroke-miterlimit:2;">
    <g transform="matrix(1,0,0,1,-86.533,-149.296)">
        <g transform="matrix(1.26649,0,0,1.26649,438.098,287.256)">
            <g transform="matrix(1,0,0,1,-18,112)">
                <text x="-208.4px" y="0px" style="font-family:'AmericanTypewriter', 'American Typewriter', serif;font-size:100px;fill:rgb(107,110,207);">software</text>
            </g>
            <g transform="matrix(1,0,0,1,155,161)">
                <text x="-188.034px" y="0px" style="font-family:'AmericanTypewriter', 'American Typewriter', serif;font-size:66px;fill:rgb(156,158,222);">engineering</text>
            </g>
            <g transform="matrix(0.5,-0.866025,0.866025,0.5,205,91)">
                <text x="-36.68px" y="0px" style="font-family:'AmericanTypewriter', 'American Typewriter', serif;font-size:10px;fill:rgb(132,60,57);">comprehensive</text>
            </g>
            <g transform="matrix(0.5,-0.866025,0.866025,0.5,-106,32)">
                <text x="-26.485px" y="0px" style="font-family:'AmericanTypewriter', 'American Typewriter', serif;font-size:10px;fill:rgb(214,97,107);">experience</text>
            </g>
            <g transform="matrix(0.5,0.866025,-0.866025,0.5,-58,145)">
                <text x="-28.575px" y="0px" style="font-family:'AmericanTypewriter', 'American Typewriter', serif;font-size:10px;fill:rgb(231,186,82);">information</text>
            </g>
            <g transform="matrix(0.5,0.866025,-0.866025,0.5,-217,-20)">
                <text x="-19.755px" y="0px" style="font-family:'AmericanTypewriter', 'American Typewriter', serif;font-size:10px;fill:rgb(140,162,82);">security</text>
            </g>
            <g transform="matrix(0.5,-0.866025,0.866025,0.5,-136,-62)">
                <text x="-15.56px" y="0px" style="font-family:'AmericanTypewriter', 'American Typewriter', serif;font-size:10px;fill:rgb(222,158,214);">robust</text>
            </g>
            <g transform="matrix(0.5,0.866025,-0.866025,0.5,-23,41)">
                <text x="-18.015px" y="0px" style="font-family:'AmericanTypewriter', 'American Typewriter', serif;font-size:10px;fill:rgb(57,59,121);">reliable</text>
            </g>
            <g transform="matrix(0.5,0.866025,-0.866025,0.5,-96,-5)">
                <text x="-12.565px" y="0px" style="font-family:'AmericanTypewriter', 'American Typewriter', serif;font-size:10px;fill:rgb(82,84,163);">focus</text>
            </g>
            <g transform="matrix(1,0,0,1,-115,123)">
                <text x="-32.935px" y="0px" style="font-family:'AmericanTypewriter', 'American Typewriter', serif;font-size:10px;fill:rgb(140,109,49);">cryptography</text>
            </g>
            <g transform="matrix(0.962511,0.271242,-0.271242,0.962511,180.049,6.33434)">
                <text x="-24.38px" y="0px" style="font-family:'AmericanTypewriter', 'American Typewriter', serif;font-size:10px;fill:rgb(107,110,207);">embedded</text>
            </g>
            <g transform="matrix(0.5,0.866025,-0.866025,0.5,171,40)">
                <text x="-19.665px" y="0px" style="font-family:'AmericanTypewriter', 'American Typewriter', serif;font-size:10px;fill:rgb(156,158,222);">systems</text>
            </g>
            <g transform="matrix(1,0,0,1,128,122)">
                <text x="-28.125px" y="0px" style="font-family:'AmericanTypewriter', 'American Typewriter', serif;font-size:10px;fill:rgb(99,121,57);">correctness</text>
            </g>
            <g transform="matrix(0.5,0.866025,-0.866025,0.5,69,-33)">
                <text x="-27.485px" y="0px" style="font-family:'AmericanTypewriter', 'American Typewriter', serif;font-size:10px;fill:rgb(181,207,107);">veriﬁcation</text>
            </g>
            <g transform="matrix(0.5,-0.866025,0.866025,0.5,-103,-24)">
                <text x="-32.3px" y="0px" style="font-family:'AmericanTypewriter', 'American Typewriter', serif;font-size:10px;fill:rgb(206,219,156);">experimental</text>
            </g>
            <g transform="matrix(0.5,0.866025,-0.866025,0.5,241.267,-13.8833)">
                <text x="-17.555px" y="0px" style="font-family:'AmericanTypewriter', 'American Typewriter', serif;font-size:10px;fill:rgb(189,158,57);">applied</text>
            </g>
            <g transform="matrix(0.5,-0.866025,0.866025,0.5,239.267,-48.8833)">
                <text x="-21.205px" y="0px" style="font-family:'AmericanTypewriter', 'American Typewriter', serif;font-size:10px;fill:rgb(181,207,107);">research</text>
            </g>
            <g transform="matrix(0.5,0.866025,-0.866025,0.5,105,-79)">
                <text x="-31.025px" y="0px" style="font-family:'AmericanTypewriter', 'American Typewriter', serif;font-size:10px;fill:rgb(156,158,222);">development</text>
            </g>
            <g transform="matrix(1,0,0,1,-18,17)">
                <text x="-17.295px" y="0px" style="font-family:'AmericanTypewriter', 'American Typewriter', serif;font-size:10px;fill:rgb(156,158,222);">precise</text>
            </g>
            <g transform="matrix(0.5,-0.866025,0.866025,0.5,-182,128)">
                <text x="-19.66px" y="0px" style="font-family:'AmericanTypewriter', 'American Typewriter', serif;font-size:10px;fill:rgb(165,81,148);">creative</text>
            </g>
            <g transform="matrix(1,0,0,1,-241,56)">
                <text x="-36.68px" y="0px" style="font-family:'AmericanTypewriter', 'American Typewriter', serif;font-size:10px;fill:rgb(206,109,189);">high-assurance</text>
            </g>
            <g transform="matrix(1,0,0,1,35,55)">
                <text x="-37.825px" y="0px" style="font-family:'AmericanTypewriter', 'American Typewriter', serif;font-size:10px;fill:rgb(222,158,214);">formal methods</text>
            </g>
            <g transform="matrix(1,0,0,1,-10.1083,-89.0479)">
                <text x="-27.12px" y="0px" style="font-family:'AmericanTypewriter', 'American Typewriter', serif;font-size:10px;fill:rgb(57,59,121);">lightweight</text>
            </g>
            <g transform="matrix(1,0,0,1,-64,-32)">
                <text x="-11.375px" y="0px" style="font-family:'AmericanTypewriter', 'American Typewriter', serif;font-size:10px;fill:rgb(82,84,163);">R&amp;D</text>
            </g>
        </g>
    </g>
</svg>
